<mxfile host="Electron" agent="Mozilla/5.0 (Windows NT 10.0; Win64; x64) AppleWebKit/537.36 (KHTML, like Gecko) draw.io/28.0.4 Chrome/138.0.7204.97 Electron/37.2.1 Safari/537.36" version="28.0.4">
  <diagram name="Page-1" id="cEl0S44pI7hcpEX29Bqx">
    <mxGraphModel dx="1011" dy="501" grid="1" gridSize="10" guides="1" tooltips="1" connect="1" arrows="1" fold="1" page="1" pageScale="1" pageWidth="850" pageHeight="1100" math="0" shadow="0">
      <root>
        <mxCell id="0" />
        <mxCell id="1" parent="0" />
        <mxCell id="V6-zpz9xi5ae2D4FIiN9-1" value="Scanners" style="whiteSpace=wrap;strokeWidth=2;fillColor=#FFFF99;" vertex="1" parent="1">
          <mxGeometry x="330" y="20" width="595" height="338" as="geometry" />
        </mxCell>
        <mxCell id="V6-zpz9xi5ae2D4FIiN9-2" value="Semgrep" style="whiteSpace=wrap;strokeWidth=2;fillColor=#99CCFF;" vertex="1" parent="1">
          <mxGeometry x="722" y="61" width="122" height="54" as="geometry" />
        </mxCell>
        <mxCell id="V6-zpz9xi5ae2D4FIiN9-3" value="Scan Engine: Tool Orchestration" style="whiteSpace=wrap;strokeWidth=2;fillColor=#99CCFF;" vertex="1" parent="1">
          <mxGeometry x="355" y="147" width="235" height="78" as="geometry" />
        </mxCell>
        <mxCell id="V6-zpz9xi5ae2D4FIiN9-4" value="Snyk / Trivy / OWASP DC" style="whiteSpace=wrap;strokeWidth=2;fillColor=#99CCFF;" vertex="1" parent="1">
          <mxGeometry x="665" y="165" width="235" height="54" as="geometry" />
        </mxCell>
        <mxCell id="V6-zpz9xi5ae2D4FIiN9-5" value="GitLeaks / TruffleHog" style="whiteSpace=wrap;strokeWidth=2;fillColor=#99CCFF;" vertex="1" parent="1">
          <mxGeometry x="676" y="269" width="214" height="54" as="geometry" />
        </mxCell>
        <mxCell id="V6-zpz9xi5ae2D4FIiN9-6" value="Prepare Source: Git Clone / ZIP / Sparse" style="whiteSpace=wrap;strokeWidth=2;fillColor=#99CCFF;" vertex="1" parent="1">
          <mxGeometry x="20" y="147" width="260" height="78" as="geometry" />
        </mxCell>
        <mxCell id="V6-zpz9xi5ae2D4FIiN9-7" value="CVE-to-Rule Mapping Engine" style="whiteSpace=wrap;strokeWidth=2;fillColor=#99CCFF;" vertex="1" parent="1">
          <mxGeometry x="975" y="168" width="260" height="78" as="geometry" />
        </mxCell>
        <mxCell id="V6-zpz9xi5ae2D4FIiN9-8" value="CWE to Fixer Map" style="whiteSpace=wrap;strokeWidth=2;fillColor=#99CCFF;" vertex="1" parent="1">
          <mxGeometry x="1285" y="180" width="186" height="54" as="geometry" />
        </mxCell>
        <mxCell id="V6-zpz9xi5ae2D4FIiN9-9" value="Match Found &amp; Eligible?" style="rhombus;strokeWidth=2;whiteSpace=wrap;fillColor=#99CCFF;" vertex="1" parent="1">
          <mxGeometry x="1521" y="95" width="225" height="225" as="geometry" />
        </mxCell>
        <mxCell id="V6-zpz9xi5ae2D4FIiN9-10" value="Log + Notify Developer" style="whiteSpace=wrap;strokeWidth=2;fillColor=#99CCFF;" vertex="1" parent="1">
          <mxGeometry x="1823" y="122" width="223" height="54" as="geometry" />
        </mxCell>
        <mxCell id="V6-zpz9xi5ae2D4FIiN9-11" value="Choose Autofix Tool" style="whiteSpace=wrap;strokeWidth=2;fillColor=#99CCFF;" vertex="1" parent="1">
          <mxGeometry x="1835" y="226" width="200" height="54" as="geometry" />
        </mxCell>
        <mxCell id="V6-zpz9xi5ae2D4FIiN9-12" value="Semgrep Fix" style="whiteSpace=wrap;strokeWidth=2;fillColor=#99CCFF;" vertex="1" parent="1">
          <mxGeometry x="2105" y="24" width="147" height="54" as="geometry" />
        </mxCell>
        <mxCell id="V6-zpz9xi5ae2D4FIiN9-13" value="JavaParser Fix" style="whiteSpace=wrap;strokeWidth=2;fillColor=#99CCFF;" vertex="1" parent="1">
          <mxGeometry x="2097" y="159" width="162" height="54" as="geometry" />
        </mxCell>
        <mxCell id="V6-zpz9xi5ae2D4FIiN9-14" value="Snyk Patch CLI" style="whiteSpace=wrap;strokeWidth=2;fillColor=#99CCFF;" vertex="1" parent="1">
          <mxGeometry x="2096" y="263" width="164" height="54" as="geometry" />
        </mxCell>
        <mxCell id="V6-zpz9xi5ae2D4FIiN9-15" value="GPT Fixer" style="whiteSpace=wrap;strokeWidth=2;fillColor=#99CCFF;" vertex="1" parent="1">
          <mxGeometry x="2114" y="367" width="129" height="54" as="geometry" />
        </mxCell>
        <mxCell id="V6-zpz9xi5ae2D4FIiN9-16" value="Create Patch / PR" style="whiteSpace=wrap;strokeWidth=2;fillColor=#99CCFF;" vertex="1" parent="1">
          <mxGeometry x="2310" y="226" width="189" height="54" as="geometry" />
        </mxCell>
        <mxCell id="V6-zpz9xi5ae2D4FIiN9-17" value="PR Review: Dev + Security" style="whiteSpace=wrap;strokeWidth=2;fillColor=#99CCFF;" vertex="1" parent="1">
          <mxGeometry x="2549" y="226" width="247" height="54" as="geometry" />
        </mxCell>
        <mxCell id="V6-zpz9xi5ae2D4FIiN9-18" value="Approved?" style="rhombus;strokeWidth=2;whiteSpace=wrap;fillColor=#99CCFF;" vertex="1" parent="1">
          <mxGeometry x="2845" y="189" width="127" height="127" as="geometry" />
        </mxCell>
        <mxCell id="V6-zpz9xi5ae2D4FIiN9-19" value="Merge + Trigger CI" style="whiteSpace=wrap;strokeWidth=2;fillColor=#99CCFF;" vertex="1" parent="1">
          <mxGeometry x="3050" y="128" width="189" height="54" as="geometry" />
        </mxCell>
        <mxCell id="V6-zpz9xi5ae2D4FIiN9-20" value="Request Changes" style="whiteSpace=wrap;strokeWidth=2;fillColor=#99CCFF;" vertex="1" parent="1">
          <mxGeometry x="3055" y="232" width="180" height="54" as="geometry" />
        </mxCell>
        <mxCell id="V6-zpz9xi5ae2D4FIiN9-21" value="CI: Test, Lint, Build" style="whiteSpace=wrap;strokeWidth=2;fillColor=#99CCFF;" vertex="1" parent="1">
          <mxGeometry x="3289" y="128" width="198" height="54" as="geometry" />
        </mxCell>
        <mxCell id="V6-zpz9xi5ae2D4FIiN9-22" value="CI Passed?" style="rhombus;strokeWidth=2;whiteSpace=wrap;fillColor=#99CCFF;" vertex="1" parent="1">
          <mxGeometry x="3538" y="92" width="126" height="126" as="geometry" />
        </mxCell>
        <mxCell id="V6-zpz9xi5ae2D4FIiN9-23" value="CD: Deploy to Staging/Prod" style="whiteSpace=wrap;strokeWidth=2;fillColor=#99CCFF;" vertex="1" parent="1">
          <mxGeometry x="3741" y="76" width="255" height="54" as="geometry" />
        </mxCell>
        <mxCell id="V6-zpz9xi5ae2D4FIiN9-24" value="Alert Developer" style="whiteSpace=wrap;strokeWidth=2;fillColor=#99CCFF;" vertex="1" parent="1">
          <mxGeometry x="3783" y="180" width="173" height="54" as="geometry" />
        </mxCell>
        <mxCell id="V6-zpz9xi5ae2D4FIiN9-25" value="DAST Scan: ZAP / Burp" style="whiteSpace=wrap;strokeWidth=2;fillColor=#99CCFF;" vertex="1" parent="1">
          <mxGeometry x="4047" y="76" width="222" height="54" as="geometry" />
        </mxCell>
        <mxCell id="V6-zpz9xi5ae2D4FIiN9-26" value="DAST Report" style="whiteSpace=wrap;strokeWidth=2;fillColor=#99CCFF;" vertex="1" parent="1">
          <mxGeometry x="4319" y="76" width="148" height="54" as="geometry" />
        </mxCell>
        <mxCell id="V6-zpz9xi5ae2D4FIiN9-27" value="" style="curved=1;startArrow=none;endArrow=block;exitX=1;exitY=0.5;entryX=0;entryY=0.5;rounded=0;" edge="1" parent="1" source="V6-zpz9xi5ae2D4FIiN9-6" target="V6-zpz9xi5ae2D4FIiN9-3">
          <mxGeometry relative="1" as="geometry">
            <Array as="points" />
          </mxGeometry>
        </mxCell>
        <mxCell id="V6-zpz9xi5ae2D4FIiN9-28" value="" style="curved=1;startArrow=none;endArrow=block;exitX=0.74;exitY=0;entryX=0;entryY=0.5;rounded=0;" edge="1" parent="1" source="V6-zpz9xi5ae2D4FIiN9-3" target="V6-zpz9xi5ae2D4FIiN9-2">
          <mxGeometry relative="1" as="geometry">
            <Array as="points">
              <mxPoint x="640" y="88" />
            </Array>
          </mxGeometry>
        </mxCell>
        <mxCell id="V6-zpz9xi5ae2D4FIiN9-29" value="" style="curved=1;startArrow=none;endArrow=block;exitX=1;exitY=0.56;entryX=0;entryY=0.5;rounded=0;" edge="1" parent="1" source="V6-zpz9xi5ae2D4FIiN9-3" target="V6-zpz9xi5ae2D4FIiN9-4">
          <mxGeometry relative="1" as="geometry">
            <Array as="points">
              <mxPoint x="640" y="192" />
            </Array>
          </mxGeometry>
        </mxCell>
        <mxCell id="V6-zpz9xi5ae2D4FIiN9-30" value="" style="curved=1;startArrow=none;endArrow=block;exitX=0.71;exitY=1;entryX=0;entryY=0.5;rounded=0;" edge="1" parent="1" source="V6-zpz9xi5ae2D4FIiN9-3" target="V6-zpz9xi5ae2D4FIiN9-5">
          <mxGeometry relative="1" as="geometry">
            <Array as="points">
              <mxPoint x="640" y="296" />
            </Array>
          </mxGeometry>
        </mxCell>
        <mxCell id="V6-zpz9xi5ae2D4FIiN9-31" value="" style="curved=1;startArrow=none;endArrow=block;exitX=1;exitY=0.5;entryX=0.31;entryY=0;rounded=0;" edge="1" parent="1" source="V6-zpz9xi5ae2D4FIiN9-2" target="V6-zpz9xi5ae2D4FIiN9-7">
          <mxGeometry relative="1" as="geometry">
            <Array as="points">
              <mxPoint x="950" y="88" />
            </Array>
          </mxGeometry>
        </mxCell>
        <mxCell id="V6-zpz9xi5ae2D4FIiN9-32" value="" style="curved=1;startArrow=none;endArrow=block;exitX=1;exitY=0.5;entryX=0;entryY=0.34;rounded=0;" edge="1" parent="1" source="V6-zpz9xi5ae2D4FIiN9-4" target="V6-zpz9xi5ae2D4FIiN9-7">
          <mxGeometry relative="1" as="geometry">
            <Array as="points">
              <mxPoint x="950" y="192" />
            </Array>
          </mxGeometry>
        </mxCell>
        <mxCell id="V6-zpz9xi5ae2D4FIiN9-33" value="" style="curved=1;startArrow=none;endArrow=block;exitX=1;exitY=0.5;entryX=0.24;entryY=1;rounded=0;" edge="1" parent="1" source="V6-zpz9xi5ae2D4FIiN9-5" target="V6-zpz9xi5ae2D4FIiN9-7">
          <mxGeometry relative="1" as="geometry">
            <Array as="points">
              <mxPoint x="950" y="296" />
            </Array>
          </mxGeometry>
        </mxCell>
        <mxCell id="V6-zpz9xi5ae2D4FIiN9-34" value="" style="curved=1;startArrow=none;endArrow=block;exitX=1;exitY=0.5;entryX=0;entryY=0.5;rounded=0;" edge="1" parent="1" source="V6-zpz9xi5ae2D4FIiN9-7" target="V6-zpz9xi5ae2D4FIiN9-8">
          <mxGeometry relative="1" as="geometry">
            <Array as="points" />
          </mxGeometry>
        </mxCell>
        <mxCell id="V6-zpz9xi5ae2D4FIiN9-35" value="" style="curved=1;startArrow=none;endArrow=block;exitX=1;exitY=0.5;entryX=0;entryY=0.5;rounded=0;" edge="1" parent="1" source="V6-zpz9xi5ae2D4FIiN9-8" target="V6-zpz9xi5ae2D4FIiN9-9">
          <mxGeometry relative="1" as="geometry">
            <Array as="points" />
          </mxGeometry>
        </mxCell>
        <mxCell id="V6-zpz9xi5ae2D4FIiN9-36" value="No" style="curved=1;startArrow=none;endArrow=block;exitX=1;exitY=0.31;entryX=0;entryY=0.5;rounded=0;" edge="1" parent="1" source="V6-zpz9xi5ae2D4FIiN9-9" target="V6-zpz9xi5ae2D4FIiN9-10">
          <mxGeometry relative="1" as="geometry">
            <Array as="points">
              <mxPoint x="1784" y="149" />
            </Array>
          </mxGeometry>
        </mxCell>
        <mxCell id="V6-zpz9xi5ae2D4FIiN9-37" value="Yes" style="curved=1;startArrow=none;endArrow=block;exitX=1;exitY=0.65;entryX=0;entryY=0.5;rounded=0;" edge="1" parent="1" source="V6-zpz9xi5ae2D4FIiN9-9" target="V6-zpz9xi5ae2D4FIiN9-11">
          <mxGeometry relative="1" as="geometry">
            <Array as="points">
              <mxPoint x="1784" y="253" />
            </Array>
          </mxGeometry>
        </mxCell>
        <mxCell id="V6-zpz9xi5ae2D4FIiN9-38" value="" style="curved=1;startArrow=none;endArrow=block;exitX=0.59;exitY=0;entryX=0;entryY=0.5;rounded=0;" edge="1" parent="1" source="V6-zpz9xi5ae2D4FIiN9-11" target="V6-zpz9xi5ae2D4FIiN9-12">
          <mxGeometry relative="1" as="geometry">
            <Array as="points">
              <mxPoint x="2071" y="51" />
            </Array>
          </mxGeometry>
        </mxCell>
        <mxCell id="V6-zpz9xi5ae2D4FIiN9-39" value="" style="curved=1;startArrow=none;endArrow=block;exitX=0.77;exitY=0;entryX=0;entryY=0.5;rounded=0;" edge="1" parent="1" source="V6-zpz9xi5ae2D4FIiN9-11" target="V6-zpz9xi5ae2D4FIiN9-13">
          <mxGeometry relative="1" as="geometry">
            <Array as="points">
              <mxPoint x="2071" y="186" />
            </Array>
          </mxGeometry>
        </mxCell>
        <mxCell id="V6-zpz9xi5ae2D4FIiN9-40" value="" style="curved=1;startArrow=none;endArrow=block;exitX=1;exitY=1;entryX=0;entryY=0.5;rounded=0;" edge="1" parent="1" source="V6-zpz9xi5ae2D4FIiN9-11" target="V6-zpz9xi5ae2D4FIiN9-14">
          <mxGeometry relative="1" as="geometry">
            <Array as="points">
              <mxPoint x="2071" y="290" />
            </Array>
          </mxGeometry>
        </mxCell>
        <mxCell id="V6-zpz9xi5ae2D4FIiN9-41" value="" style="curved=1;startArrow=none;endArrow=block;exitX=0.63;exitY=1;entryX=0;entryY=0.5;rounded=0;" edge="1" parent="1" source="V6-zpz9xi5ae2D4FIiN9-11" target="V6-zpz9xi5ae2D4FIiN9-15">
          <mxGeometry relative="1" as="geometry">
            <Array as="points">
              <mxPoint x="2071" y="394" />
            </Array>
          </mxGeometry>
        </mxCell>
        <mxCell id="V6-zpz9xi5ae2D4FIiN9-42" value="" style="curved=1;startArrow=none;endArrow=block;exitX=1;exitY=0.5;entryX=0.42;entryY=0;rounded=0;" edge="1" parent="1" source="V6-zpz9xi5ae2D4FIiN9-12" target="V6-zpz9xi5ae2D4FIiN9-16">
          <mxGeometry relative="1" as="geometry">
            <Array as="points">
              <mxPoint x="2285" y="51" />
            </Array>
          </mxGeometry>
        </mxCell>
        <mxCell id="V6-zpz9xi5ae2D4FIiN9-43" value="" style="curved=1;startArrow=none;endArrow=block;exitX=1;exitY=0.5;entryX=0.25;entryY=0;rounded=0;" edge="1" parent="1" source="V6-zpz9xi5ae2D4FIiN9-13" target="V6-zpz9xi5ae2D4FIiN9-16">
          <mxGeometry relative="1" as="geometry">
            <Array as="points">
              <mxPoint x="2285" y="186" />
            </Array>
          </mxGeometry>
        </mxCell>
        <mxCell id="V6-zpz9xi5ae2D4FIiN9-44" value="" style="curved=1;startArrow=none;endArrow=block;exitX=1;exitY=0.5;entryX=0.04;entryY=1;rounded=0;" edge="1" parent="1" source="V6-zpz9xi5ae2D4FIiN9-14" target="V6-zpz9xi5ae2D4FIiN9-16">
          <mxGeometry relative="1" as="geometry">
            <Array as="points">
              <mxPoint x="2285" y="290" />
            </Array>
          </mxGeometry>
        </mxCell>
        <mxCell id="V6-zpz9xi5ae2D4FIiN9-45" value="" style="curved=1;startArrow=none;endArrow=block;exitX=1;exitY=0.5;entryX=0.38;entryY=1;rounded=0;" edge="1" parent="1" source="V6-zpz9xi5ae2D4FIiN9-15" target="V6-zpz9xi5ae2D4FIiN9-16">
          <mxGeometry relative="1" as="geometry">
            <Array as="points">
              <mxPoint x="2285" y="394" />
            </Array>
          </mxGeometry>
        </mxCell>
        <mxCell id="V6-zpz9xi5ae2D4FIiN9-46" value="" style="curved=1;startArrow=none;endArrow=block;exitX=1;exitY=0.5;entryX=0;entryY=0.5;rounded=0;" edge="1" parent="1" source="V6-zpz9xi5ae2D4FIiN9-16" target="V6-zpz9xi5ae2D4FIiN9-17">
          <mxGeometry relative="1" as="geometry">
            <Array as="points" />
          </mxGeometry>
        </mxCell>
        <mxCell id="V6-zpz9xi5ae2D4FIiN9-47" value="" style="curved=1;startArrow=none;endArrow=block;exitX=1;exitY=0.5;entryX=0;entryY=0.5;rounded=0;" edge="1" parent="1" source="V6-zpz9xi5ae2D4FIiN9-17" target="V6-zpz9xi5ae2D4FIiN9-18">
          <mxGeometry relative="1" as="geometry">
            <Array as="points" />
          </mxGeometry>
        </mxCell>
        <mxCell id="V6-zpz9xi5ae2D4FIiN9-48" value="Yes" style="curved=1;startArrow=none;endArrow=block;exitX=1.01;exitY=0.02;entryX=0;entryY=0.5;rounded=0;" edge="1" parent="1" source="V6-zpz9xi5ae2D4FIiN9-18" target="V6-zpz9xi5ae2D4FIiN9-19">
          <mxGeometry relative="1" as="geometry">
            <Array as="points">
              <mxPoint x="3012" y="155" />
            </Array>
          </mxGeometry>
        </mxCell>
        <mxCell id="V6-zpz9xi5ae2D4FIiN9-49" value="No" style="curved=1;startArrow=none;endArrow=block;exitX=1.01;exitY=0.53;entryX=0;entryY=0.5;rounded=0;" edge="1" parent="1" source="V6-zpz9xi5ae2D4FIiN9-18" target="V6-zpz9xi5ae2D4FIiN9-20">
          <mxGeometry relative="1" as="geometry">
            <Array as="points">
              <mxPoint x="3012" y="259" />
            </Array>
          </mxGeometry>
        </mxCell>
        <mxCell id="V6-zpz9xi5ae2D4FIiN9-50" value="" style="curved=1;startArrow=none;endArrow=block;exitX=1;exitY=0.5;entryX=0;entryY=0.5;rounded=0;" edge="1" parent="1" source="V6-zpz9xi5ae2D4FIiN9-19" target="V6-zpz9xi5ae2D4FIiN9-21">
          <mxGeometry relative="1" as="geometry">
            <Array as="points" />
          </mxGeometry>
        </mxCell>
        <mxCell id="V6-zpz9xi5ae2D4FIiN9-51" value="" style="curved=1;startArrow=none;endArrow=block;exitX=1;exitY=0.5;entryX=0;entryY=0.5;rounded=0;" edge="1" parent="1" source="V6-zpz9xi5ae2D4FIiN9-21" target="V6-zpz9xi5ae2D4FIiN9-22">
          <mxGeometry relative="1" as="geometry">
            <Array as="points" />
          </mxGeometry>
        </mxCell>
        <mxCell id="V6-zpz9xi5ae2D4FIiN9-52" value="Yes" style="curved=1;startArrow=none;endArrow=block;exitX=1;exitY=0.24;entryX=0;entryY=0.5;rounded=0;" edge="1" parent="1" source="V6-zpz9xi5ae2D4FIiN9-22" target="V6-zpz9xi5ae2D4FIiN9-23">
          <mxGeometry relative="1" as="geometry">
            <Array as="points">
              <mxPoint x="3702" y="103" />
            </Array>
          </mxGeometry>
        </mxCell>
        <mxCell id="V6-zpz9xi5ae2D4FIiN9-53" value="No" style="curved=1;startArrow=none;endArrow=block;exitX=1;exitY=0.76;entryX=0;entryY=0.5;rounded=0;" edge="1" parent="1" source="V6-zpz9xi5ae2D4FIiN9-22" target="V6-zpz9xi5ae2D4FIiN9-24">
          <mxGeometry relative="1" as="geometry">
            <Array as="points">
              <mxPoint x="3702" y="207" />
            </Array>
          </mxGeometry>
        </mxCell>
        <mxCell id="V6-zpz9xi5ae2D4FIiN9-54" value="" style="curved=1;startArrow=none;endArrow=block;exitX=1;exitY=0.5;entryX=0;entryY=0.5;rounded=0;" edge="1" parent="1" source="V6-zpz9xi5ae2D4FIiN9-23" target="V6-zpz9xi5ae2D4FIiN9-25">
          <mxGeometry relative="1" as="geometry">
            <Array as="points" />
          </mxGeometry>
        </mxCell>
        <mxCell id="V6-zpz9xi5ae2D4FIiN9-55" value="" style="curved=1;startArrow=none;endArrow=block;exitX=1;exitY=0.5;entryX=0;entryY=0.5;rounded=0;" edge="1" parent="1" source="V6-zpz9xi5ae2D4FIiN9-25" target="V6-zpz9xi5ae2D4FIiN9-26">
          <mxGeometry relative="1" as="geometry">
            <Array as="points" />
          </mxGeometry>
        </mxCell>
      </root>
    </mxGraphModel>
  </diagram>
</mxfile>
